<svg width="161" height="47" viewBox="0 0 161 47" fill="none" xmlns="http://www.w3.org/2000/svg">
<g clip-path="url(#clip0_1_390)" filter="url(#filter0_d_1_390)">
<path d="M45.7333 0.569397H4.58214V6.87627H43.679V6.88197C44.8108 6.88197 45.7145 7.78712 45.7145 8.91087V30.0896L45.7093 30.1075C45.7023 31.2263 44.7896 32.1254 43.6699 32.1254H12.9451C11.8203 32.1254 10.8997 31.219 10.8997 30.0894V21.5335C10.8997 20.4098 11.8203 19.4976 12.9451 19.4976H39.3788V13.1991H10.8876C7.40508 13.1991 4.58197 16.0094 4.58197 19.4801V32.1431C4.58197 35.6162 7.40508 38.4306 10.8876 38.4306H45.7332C49.2187 38.4306 52.0377 35.6162 52.0377 32.1431V6.85893C52.0377 3.38632 49.2188 0.569397 45.7333 0.569397Z" fill="white"/>
<path d="M69.1651 20.2218H73.4449L71.3249 13.8873H71.2661L69.1651 20.2218ZM75.3992 9.51031L80.3293 24.2172C80.9143 26.0115 81.3285 26.4267 82.3559 26.4267H83.3583V29.0157H72.5936V26.4267H73.4764C74.3613 26.4267 75.0973 26.3095 75.0973 25.9896C75.0973 25.6874 75.0678 25.3643 74.9494 24.9219L74.3339 22.8087H68.3158L67.9562 23.986C67.6342 25.0129 67.5147 25.4489 67.5147 25.862C67.5147 26.3367 68.5506 26.4267 69.3527 26.4267H70.201V29.0157H61.5291V26.4267H62.5335C63.5662 26.4267 63.9721 26.0115 64.5708 24.2172L69.4966 9.51031H75.3992Z" fill="white"/>
<path d="M89.9709 22.1259C89.9709 25.1321 90.6472 26.9234 92.2974 26.9234C93.9582 26.9234 94.6293 25.1321 94.6293 22.1259C94.6293 19.128 93.9582 17.3348 92.2974 17.3348C90.6472 17.3348 89.9709 19.128 89.9709 22.1259ZM85.0693 13.1303C85.0693 12.2991 84.8637 11.863 84.0083 11.863H82.6526V9.51031H89.9709V16.8319C91.0602 15.5959 92.4496 14.8022 93.7705 14.8022C98.1973 14.8022 99.8465 18.2508 99.8465 22.1259C99.8465 26.0115 98.1973 29.4517 93.7705 29.4517C91.9127 29.4517 90.2591 28.8055 89.2305 27.1869L88.3782 29.0178H85.0693V13.1303Z" fill="white"/>
<path d="M106.519 22.1259C106.519 25.1321 107.204 26.9234 108.852 26.9234C110.505 26.9234 111.181 25.1321 111.181 22.1259C111.181 19.128 110.505 17.3348 108.852 17.3348C107.204 17.3348 106.519 19.128 106.519 22.1259ZM101.62 13.1303C101.62 12.2991 101.412 11.863 100.565 11.863H99.2049V9.51031H106.519V16.8319C107.614 15.5959 108.998 14.8022 110.325 14.8022C114.752 14.8022 116.405 18.2508 116.405 22.1259C116.405 26.0115 114.752 29.4517 110.325 29.4517C108.467 29.4517 106.814 28.8055 105.783 27.1869L104.924 29.0178H101.62V13.1303Z" fill="white"/>
<path d="M123.042 22.127C123.042 25.5975 123.661 27.0989 125.432 27.0989C127.199 27.0989 127.817 25.5975 127.817 22.127C127.817 18.6565 127.199 17.157 125.432 17.157C123.661 17.157 123.042 18.6565 123.042 22.127ZM133.042 22.127C133.042 26.8364 129.825 29.4517 125.432 29.4517C121.029 29.4517 117.819 26.8364 117.819 22.127C117.819 17.4205 121.029 14.8022 125.432 14.8022C129.825 14.8022 133.042 17.4205 133.042 22.127Z" fill="white"/>
<path d="M154.076 22.3653V24.6595C154.076 26.0114 153.783 26.8115 152.661 26.8115C151.984 26.8115 151.662 26.3075 151.662 25.6874V17.5984H155.284V15.2437H151.662V9.77893H148.736C148.497 12.2164 147.733 15.2435 144.783 15.2435H140.183V9.77893H137.265C137.027 12.2164 136.258 15.2435 133.312 15.2435V17.5983H135.287V24.9814C135.287 27.9834 136.968 29.4515 140.001 29.4515C143.549 29.4515 144.956 27.8674 144.956 24.9814V22.3652H142.604V24.6593C142.604 26.0113 142.307 26.8113 141.189 26.8113C140.504 26.8113 140.183 26.3073 140.183 25.6872V17.5983H146.769V24.9814C146.769 27.9834 148.442 29.4515 151.482 29.4515C155.02 29.4515 156.44 27.8674 156.44 24.9814V22.3652L154.076 22.3653Z" fill="white"/>
</g>
<defs>
<filter id="filter0_d_1_390" x="0.0109863" y="0" width="161" height="47" filterUnits="userSpaceOnUse" color-interpolation-filters="sRGB">
<feFlood flood-opacity="0" result="BackgroundImageFix"/>
<feColorMatrix in="SourceAlpha" type="matrix" values="0 0 0 0 0 0 0 0 0 0 0 0 0 0 0 0 0 0 127 0" result="hardAlpha"/>
<feOffset dy="4"/>
<feGaussianBlur stdDeviation="2"/>
<feComposite in2="hardAlpha" operator="out"/>
<feColorMatrix type="matrix" values="0 0 0 0 0 0 0 0 0 0 0 0 0 0 0 0 0 0 0.25 0"/>
<feBlend mode="normal" in2="BackgroundImageFix" result="effect1_dropShadow_1_390"/>
<feBlend mode="normal" in="SourceGraphic" in2="effect1_dropShadow_1_390" result="shape"/>
</filter>
<clipPath id="clip0_1_390">
<rect width="153" height="39" fill="white" transform="translate(4.01099)"/>
</clipPath>
</defs>
</svg>
