<svg width="210" height="33" viewBox="0 0 210 33" fill="none" xmlns="http://www.w3.org/2000/svg">
<g filter="url(#filter0_d_1_387)">
<path d="M53.2992 0.0548096V0.87922H65.2493V0.0548096H53.2992ZM26.2584 3.30143C22.8979 3.24647 19.3765 5.17403 19.3215 8.75434C19.2666 12.6644 22.5171 13.7087 25.7088 14.7569C28.5157 15.6912 31.1617 16.5745 31.1067 19.3265C31.1067 21.6388 28.9593 24.1159 24.9943 24.061C22.3522 24.061 20.3148 22.7929 19.1567 22.0784C19.1567 22.5181 19.1567 23.2915 19.1567 23.4564C20.8644 24.3907 22.9018 24.8893 25.0492 24.9443C29.0692 24.9992 33.1442 22.7419 33.1992 18.4471C33.2541 14.7569 30.0036 13.6576 26.8669 12.6095C24.005 11.6751 21.3041 10.7369 21.3041 7.98489C21.3041 5.72756 23.5064 4.01985 26.3722 4.01985C29.1242 4.01985 30.9968 5.28787 31.8251 6.00237C31.8251 5.50772 31.8251 4.7893 31.8251 4.62442C30.9379 4.18473 28.9004 3.30143 26.2584 3.30143ZM116.846 3.58016C116.736 3.85496 108.421 23.845 108.146 24.3946H109.634C109.744 24.1198 112.885 16.4096 112.885 16.4096H121.694C121.694 16.4096 124.835 24.1748 124.945 24.3946H127.642C126.872 22.577 122.189 11.6202 122.189 11.6202C122.189 11.6202 118.883 3.8 118.773 3.58016H116.846ZM4.01099 3.74504V24.3397H16.071V23.4054H6.37823V13.6027H15.1877V12.7783H6.37823V4.62834H15.9061V3.74897L4.01099 3.74504ZM34.0785 3.74504V4.62442H40.8505V24.3946H43.2178V4.62442H49.9897V3.74504H34.0785ZM53.3541 3.74504V24.3397H65.4141V23.4054H55.7214V13.6027H64.5308V12.7783H55.7214V4.62834H65.2493V3.74897L53.3541 3.74504ZM69.7639 3.74504V24.3397H81.8239V23.4054H72.1311V13.6027H80.9406V12.7783H72.1311V4.62834H81.659V3.74897L69.7639 3.74504ZM94.7083 3.74504V24.3397H106.658V23.3504C106.274 23.3504 97.0206 23.4054 97.0206 23.4054V3.69008L94.7083 3.74504ZM129.62 3.74504V17.6227C129.62 22.3572 132.482 24.8383 137.88 24.8383C143.003 24.8383 146.085 22.1962 146.085 17.7876V3.74504H144.872V17.7876C144.872 21.6976 142.34 24.1198 138.21 24.1198C134.3 24.1198 131.988 21.9175 131.988 18.2272V3.8H129.62V3.74504ZM150.659 3.74504V24.3397H157.485C161.176 24.3947 164.148 23.4054 166.13 21.4228C167.948 19.6052 168.882 17.0181 168.882 13.7676C168.882 10.6269 167.948 8.03984 166.185 6.27717C164.422 4.51449 161.78 3.63512 158.53 3.69008H150.655V3.74504H150.659ZM172.741 3.74504V24.3397H184.801V23.4054H175.108V13.6027H183.918V12.7783H175.108V4.62834H184.636V3.74897L172.741 3.74504ZM189.206 3.74504V24.3397H191.573V14.3172H195.982C195.982 14.3172 202.314 24.1748 202.424 24.3397H205.011C204.626 23.7351 198.184 14.0424 198.184 14.0424L198.514 13.9874C198.734 13.9324 203.692 12.9392 203.692 8.91922C203.692 7.54128 203.252 6.38709 202.369 5.50379C201.156 4.29072 199.118 3.68616 196.641 3.74112H189.206V3.74504ZM191.573 4.5145H196.417C198.125 4.5145 199.389 4.89922 200.273 5.78252C201.042 6.55198 201.431 7.60016 201.431 8.97811C201.431 10.2461 201.046 11.2354 200.273 12.0088C199.169 13.057 197.411 13.6066 195.094 13.6066H191.624V4.51842H191.573V4.5145ZM153.081 4.56946H158.204C160.626 4.56946 162.609 5.22899 164.042 6.60694C165.694 8.25969 166.519 10.7918 166.519 14.1523C166.519 17.3479 165.749 19.7151 164.151 21.258C162.554 22.8557 160.241 23.5702 157.046 23.5153H153.136V4.56946H153.081ZM117.285 5.39387L120.202 12.6644L121.36 15.4714H113.265L113.375 15.1965C113.76 14.2622 115.688 9.63372 117.121 5.88852L117.285 5.39387Z" fill="white"/>
</g>
<defs>
<filter id="filter0_d_1_387" x="0.0109863" y="0.0548096" width="209" height="32.8904" filterUnits="userSpaceOnUse" color-interpolation-filters="sRGB">
<feFlood flood-opacity="0" result="BackgroundImageFix"/>
<feColorMatrix in="SourceAlpha" type="matrix" values="0 0 0 0 0 0 0 0 0 0 0 0 0 0 0 0 0 0 127 0" result="hardAlpha"/>
<feOffset dy="4"/>
<feGaussianBlur stdDeviation="2"/>
<feComposite in2="hardAlpha" operator="out"/>
<feColorMatrix type="matrix" values="0 0 0 0 0 0 0 0 0 0 0 0 0 0 0 0 0 0 0.25 0"/>
<feBlend mode="normal" in2="BackgroundImageFix" result="effect1_dropShadow_1_387"/>
<feBlend mode="normal" in="SourceGraphic" in2="effect1_dropShadow_1_387" result="shape"/>
</filter>
</defs>
</svg>
