<svg width="168" height="29" viewBox="0 0 168 29" fill="none" xmlns="http://www.w3.org/2000/svg">
<path d="M48.5012 23.067H45.1998V15.1835H38.3407V23.067H35.0407V6.69165H38.3407V12.9847H45.2012V6.69165H48.5022L48.5012 23.067Z" fill="white"/>
<path d="M63.254 8.89193H57.7527V13.3826H63.1371V15.5819H57.7527V20.8686H64.261V23.067H54.4507V6.69165H63.253L63.254 8.89193Z" fill="white"/>
<path d="M69.2045 6.69165H74.894C78.031 6.69165 80.1387 8.18952 80.1387 10.973C80.1387 13.4069 78.9206 14.8102 77.3761 15.722L81.4508 23.0665L77.6546 23.0645L74.4724 16.5165H72.5059V23.0665H69.204V6.69165H69.2045ZM72.5059 14.3187H73.8399C76.1106 14.3187 76.8377 12.5639 76.8377 11.3704C76.8377 9.52161 75.526 8.89193 74.2153 8.89193H72.5064L72.5059 14.3187Z" fill="white"/>
<path d="M85.573 23.067V6.69165H91.4963C94.2579 6.69165 96.2021 7.95539 96.2021 10.178C96.2021 12.7971 94.0702 13.8737 92.9239 14.1786V14.2251C94.9598 14.3187 97.2309 15.722 97.2309 18.2253C97.2309 21.0562 94.8671 23.0665 91.0035 23.0665L85.573 23.067ZM88.8725 13.5213H89.9033C91.8 13.5213 93.0869 12.3046 93.0869 10.7844C93.0869 9.33547 92.0091 8.70239 90.5815 8.70239H88.8725V13.5213ZM88.8725 21.0557H90.5596C92.386 21.0557 93.766 20.0964 93.766 18.2723C93.766 16.3537 92.3394 15.5344 90.5354 15.5344H88.8725V21.0557Z" fill="white"/>
<path d="M109.301 6.69165L115.458 23.067H111.76L110.237 18.599H104.43L102.744 23.067H99.8878L106.561 6.69165H109.301ZM109.747 16.5883C109.045 14.437 108.341 12.4471 107.569 9.91959H107.522C106.844 12.4471 106.071 14.4355 105.298 16.5883H109.747Z" fill="white"/>
<path d="M119.489 6.69165H122.79V20.8686H129.298V23.067H119.488L119.489 6.69165Z" fill="white"/>
<path d="M133.704 23.067V6.69165H137.005V23.067H133.704Z" fill="white"/>
<path d="M151.734 8.89193H146.256V14.2731H151.641V16.47H146.256V23.0665H142.955V6.69165H151.734V8.89193Z" fill="white"/>
<path d="M165.233 8.89193H159.73V13.3826H165.116V15.5819H159.73V20.8686H166.239V23.067H156.43V6.69165H165.232V8.89193H165.233Z" fill="white"/>
<path d="M14.3981 27.4161C7.49103 27.4161 1.90775 21.8246 1.90775 14.9348C1.90775 8.03636 7.49103 2.44866 14.3981 2.44866C21.293 2.44866 26.8787 8.03539 26.8787 14.9348C26.8787 21.8246 21.2935 27.4161 14.3981 27.4161ZM14.3981 1.63477C7.04912 1.63477 1.08942 7.5933 1.08942 14.9358C1.08942 22.2773 7.04863 28.23 14.3981 28.23C21.7388 28.23 27.6975 22.2773 27.6975 14.9358C27.6975 7.5933 21.7393 1.63477 14.3981 1.63477Z" fill="white"/>
<path d="M2.93079 14.85C7.47163 16.2771 11.7544 20.7048 13.0501 26.3647C6.66736 25.5343 2.94534 20.2923 2.93079 14.85Z" fill="white"/>
<path d="M25.8004 14.85C21.2606 16.2771 16.9239 20.7048 15.6816 26.3647C22.0638 25.5343 25.7859 20.2923 25.8004 14.85Z" fill="white"/>
<path d="M14.3802 26.3647C9.53954 18.8981 10.5849 8.65634 14.385 3.14038C18.0081 8.65585 19.1427 18.8962 14.3802 26.3647Z" fill="white"/>
</svg>
