<svg width="144" height="35" viewBox="0 0 144 35" fill="none" xmlns="http://www.w3.org/2000/svg">
<path d="M73.6735 19.6974L68.2481 6.05629L62.8542 19.6068C64.2576 19.5627 65.6772 19.5371 67.1282 19.5371C69.3681 19.5371 71.5475 19.5917 73.6735 19.6974ZM118.7 33.528C107.074 28.4721 93.9981 24.7278 78.6341 23.4638L83.3124 34.8256H79.6913L75.0734 23.2187C72.4931 23.0758 69.8467 22.9956 67.134 22.9956C65.2102 22.9956 63.3212 23.0351 61.4624 23.1106L56.8004 34.8256H53.1769L57.9203 23.2988C41.6234 24.3676 27.7441 28.2293 15.5528 33.5245V32.8088C23.6896 28.2676 31.7358 24.8776 40.4221 22.6634V15.6894L30.6391 0.671617H34.2742L42.037 13.1499L49.8032 0.671617H53.4336L43.6529 15.6894L43.6506 21.8989C48.6217 20.8197 53.8182 20.1064 59.3748 19.7683L67.4372 0.174395H69.0532L77.1796 19.924C82.634 20.3596 87.7468 21.1624 92.6482 22.3369V3.28437H84.6554V0.671617H103.947V3.28437H95.958V23.1954C103.839 25.3969 111.234 28.5987 118.7 32.8158V33.528ZM131.626 0.671617H112.336V3.28437H120.328V26.8328H123.635V3.28437H131.626V0.671617ZM20.8898 26.8328L17.5823 26.8363V13.9271H3.31848V26.8328H0.0110016V0.671617H3.31848V11.3166H17.5823V0.671617H20.8898V26.8328Z" fill="white"/>
<path d="M140.352 2.70872C140.194 2.61578 139.938 2.57047 139.587 2.57047H139.048V3.87975H139.619C139.889 3.87975 140.087 3.85071 140.223 3.79843C140.468 3.69504 140.596 3.50916 140.596 3.23499C140.596 2.9736 140.512 2.79933 140.352 2.70872ZM139.671 2.14295C140.114 2.14295 140.441 2.18594 140.651 2.26958C141.022 2.42525 141.207 2.73195 141.207 3.18271C141.207 3.50219 141.091 3.74034 140.858 3.89369C140.733 3.97385 140.563 4.02846 140.337 4.06447C140.624 4.10862 140.826 4.22595 140.958 4.41648C141.084 4.607 141.15 4.79404 141.15 4.97644V5.23783C141.15 5.32263 141.153 5.41209 141.159 5.50387C141.165 5.59913 141.174 5.6607 141.191 5.69439L141.213 5.73854H140.624C140.62 5.72576 140.617 5.7153 140.613 5.70369C140.61 5.69091 140.61 5.67464 140.606 5.6607L140.591 5.54453V5.25874C140.591 4.84516 140.474 4.57099 140.251 4.43739C140.114 4.36188 139.884 4.32121 139.546 4.32121H139.048V5.73854H138.412V2.14295H139.671ZM137.745 1.95707C137.195 2.5089 136.923 3.17574 136.923 3.9541C136.923 4.73828 137.194 5.40744 137.74 5.96043C138.287 6.51574 138.951 6.78991 139.733 6.78991C140.513 6.78991 141.178 6.51574 141.728 5.96043C142.273 5.40744 142.547 4.73828 142.547 3.9541C142.547 3.17574 142.273 2.5089 141.728 1.95707C141.174 1.40757 140.51 1.13108 139.733 1.13108C138.955 1.13108 138.295 1.40757 137.745 1.95707ZM142.049 6.27178C141.412 6.91654 140.641 7.23718 139.733 7.23718C138.825 7.23718 138.054 6.91654 137.415 6.27178C136.783 5.62933 136.467 4.85794 136.467 3.95062C136.467 3.05027 136.786 2.27888 137.426 1.63992C138.063 1.00212 138.832 0.682644 139.733 0.682644C140.641 0.682644 141.412 1.00212 142.049 1.63992C142.691 2.27307 143.011 3.04679 143.011 3.95062C143.011 4.85445 142.691 5.62817 142.049 6.27178Z" fill="white"/>
</svg>
