<svg width="66" height="35" viewBox="0 0 66 35" fill="none" xmlns="http://www.w3.org/2000/svg">
<path fill-rule="evenodd" clip-rule="evenodd" d="M4.058 13.9636C6.228 13.9636 8.003 14.7536 8.594 16.1336C8.792 16.7256 9.384 16.9236 10.172 16.9236H13.328C13.722 16.9236 14.314 16.5286 14.314 15.7406C14.314 12.1906 10.172 9.03362 4.058 9.03362C-2.252 9.03362 -6.396 11.9936 -6.396 16.7256C-6.396 20.4736 -3.436 22.6426 0.113998 23.6286C1.691 24.0236 4.452 24.6146 5.834 25.0086C7.214 25.4036 8.397 25.7986 8.397 26.9816C8.397 28.9546 6.425 29.7436 4.257 29.7436C2.085 29.7436 -0.0829992 28.7566 -0.674999 27.1786C-1.071 26.3886 -1.662 26.1926 -2.647 26.1926H-5.804C-6.396 26.1926 -6.987 26.5826 -6.987 27.3726V27.7626C-6.987 31.3126 -2.253 34.8626 4.256 34.8626C8.792 34.8626 15.103 33.0856 15.103 26.9726C15.103 23.4226 12.736 20.8576 8.793 19.8726C7.41 19.4776 3.663 18.4926 2.873 18.2926C1.493 18.0956 0.112999 17.5026 0.112999 16.3206C0.112999 14.5446 1.889 13.9536 4.058 13.9536V13.9636ZM25.753 34.4756C20.823 34.4756 17.863 30.7286 17.863 26.5876V14.5556H16.286C15.696 14.5556 15.103 13.9656 15.103 13.1756V11.2056C15.103 10.4136 15.695 9.82262 16.286 9.82262H17.864V2.52262C17.864 1.33262 18.654 0.542619 19.639 0.542619H22.399C23.579 0.542619 24.369 1.52762 24.369 2.51262V9.81262H28.709C29.499 9.81262 30.089 10.4026 30.089 11.1926V13.1656C30.089 13.9556 29.499 14.5456 28.709 14.5456H24.369V25.5936C24.369 27.9606 25.749 29.3416 28.119 29.3416H28.509C29.299 29.3416 29.889 29.9316 29.889 30.9176V33.0876C29.889 33.8776 29.299 34.4676 28.509 34.4676H25.749L25.753 34.4756ZM38.178 2.52562C38.178 1.53962 37.388 0.552619 36.205 0.552619H33.445C32.262 0.552619 31.472 1.53262 31.472 2.52262V32.5026C31.472 33.6826 32.262 34.4726 33.445 34.4726H36.205C37.389 34.4726 38.178 33.6826 38.178 32.5026V2.52362V2.52562ZM-20.202 34.8706C-27.892 34.8706 -32.824 28.7566 -32.824 21.8536C-32.824 15.1606 -28.306 9.05662 -20.444 9.03362H-20.399C-11.719 9.03362 -7.969 15.3436 -7.969 21.8536C-7.969 23.2336 -8.559 24.0236 -9.939 24.0236H-26.113C-25.917 26.7836 -23.55 29.3486 -20.197 29.3486C-18.033 29.3486 -16.457 28.5586 -15.267 26.9816C-14.877 26.5876 -14.477 26.1916 -13.693 26.1916H-9.946C-9.156 26.1916 -8.762 26.9816 -8.762 27.5736C-9.744 32.0916 -15.032 34.8486 -20.142 34.8706H-20.202ZM52.773 34.8706C45.081 34.8706 40.151 28.7566 40.151 21.8536C40.151 15.1606 44.671 9.05662 52.531 9.03362H52.581C61.261 9.03362 65.011 15.3436 65.011 21.8536C65.011 23.2336 64.421 24.0236 62.841 24.0236H46.861C47.058 26.7836 49.424 29.3486 52.579 29.3486C54.946 29.3486 56.524 28.5586 57.709 26.9816C57.906 26.5876 58.497 26.1916 59.286 26.1916H63.033C63.823 26.1916 64.223 26.9816 64.223 27.5736C63.241 32.0916 57.953 34.8486 52.843 34.8706H52.783H52.773ZM12.34 0.947619H-39.53C-40.713 0.947619 -41.502 1.93362 -41.502 3.11762L-41.305 23.4316C-41.305 23.4316 -52.545 3.31362 -53.14 2.13162C-53.73 1.34162 -54.912 0.355619 -56.49 0.355619H-60.83C-62.013 0.355619 -63 1.34162 -63 2.52562V32.3056C-63 33.4906 -62.013 34.4756 -60.83 34.4756H-58.068C-56.886 34.4756 -55.898 33.4906 -55.898 32.3056L-56.098 11.4006C-56.098 11.4006 -44.853 31.7136 -44.262 32.5036C-43.67 33.6876 -42.486 34.4756 -40.909 34.4756H-36.959C-35.772 34.4756 -34.989 33.4906 -34.989 32.3056V6.07562H12.341C13.131 6.07562 13.921 5.28562 13.921 4.49862V2.32862C13.921 1.54062 13.131 0.948619 12.341 0.948619L12.34 0.947619ZM46.857 19.0926H58.295C58.099 16.3326 55.555 14.1726 52.61 14.1626H52.575C49.629 14.1626 47.269 16.3126 46.862 19.0526L46.857 19.0826V19.0926ZM-25.921 19.0926H-14.481C-14.881 16.3326 -17.421 14.1726 -20.371 14.1626H-20.401C-23.151 14.1626 -25.709 16.3126 -25.921 19.0526V19.0826V19.0926ZM41.919 3.31262V4.69262C41.919 5.28262 42.309 5.87262 42.901 5.87262H62.623C63.608 5.87262 64.397 5.08262 64.397 4.09462V1.73462C64.397 0.944619 63.607 -0.0413813 62.621 0.154619C62.621 0.154619 43.491 1.93062 42.901 2.12762C42.311 2.12762 41.913 2.72062 41.913 3.31162L41.919 3.31262Z" fill="white"/>
</svg>
