<svg width="129" height="35" viewBox="0 0 129 35" fill="none" xmlns="http://www.w3.org/2000/svg">
<path fill-rule="evenodd" clip-rule="evenodd" d="M67.058 13.8342C69.228 13.8342 71.003 14.6242 71.594 16.0042C71.792 16.5962 72.384 16.7942 73.172 16.7942H76.328C76.722 16.7942 77.314 16.3992 77.314 15.6112C77.314 12.0612 73.172 8.90422 67.058 8.90422C60.748 8.90422 56.604 11.8642 56.604 16.5962C56.604 20.3442 59.564 22.5132 63.114 23.4992C64.691 23.8942 67.452 24.4852 68.834 24.8792C70.214 25.2742 71.397 25.6692 71.397 26.8522C71.397 28.8252 69.425 29.6142 67.257 29.6142C65.085 29.6142 62.917 28.6272 62.325 27.0492C61.929 26.2592 61.338 26.0632 60.353 26.0632H57.196C56.604 26.0632 56.013 26.4532 56.013 27.2432V27.6332C56.013 31.1832 60.747 34.7332 67.256 34.7332C71.792 34.7332 78.103 32.9562 78.103 26.8432C78.103 23.2932 75.736 20.7282 71.793 19.7432C70.41 19.3482 66.663 18.3632 65.873 18.1632C64.493 17.9662 63.113 17.3732 63.113 16.1912C63.113 14.4152 64.889 13.8242 67.058 13.8242V13.8342ZM88.753 34.3462C83.823 34.3462 80.863 30.5992 80.863 26.4582V14.4262H79.286C78.696 14.4262 78.103 13.8362 78.103 13.0462V11.0762C78.103 10.2842 78.695 9.69322 79.286 9.69322H80.864V2.39322C80.864 1.20322 81.654 0.413224 82.639 0.413224H85.399C86.579 0.413224 87.369 1.39822 87.369 2.38322V9.68322H91.709C92.499 9.68322 93.089 10.2732 93.089 11.0632V13.0362C93.089 13.8262 92.499 14.4162 91.709 14.4162H87.369V25.4642C87.369 27.8312 88.749 29.2122 91.119 29.2122H91.509C92.299 29.2122 92.889 29.8022 92.889 30.7882V32.9582C92.889 33.7482 92.299 34.3382 91.509 34.3382H88.749L88.753 34.3462ZM101.178 2.39622C101.178 1.41022 100.388 0.423224 99.205 0.423224H96.445C95.262 0.423224 94.472 1.40322 94.472 2.39322V32.3732C94.472 33.5532 95.262 34.3432 96.445 34.3432H99.205C100.389 34.3432 101.178 33.5532 101.178 32.3732V2.39422V2.39622ZM42.798 34.7412C35.108 34.7412 30.176 28.6272 30.176 21.7242C30.176 15.0312 34.694 8.92722 42.556 8.90422H42.601C51.281 8.90422 55.031 15.2142 55.031 21.7242C55.031 23.1042 54.441 23.8942 53.061 23.8942H36.887C37.083 26.6542 39.45 29.2192 42.803 29.2192C44.967 29.2192 46.543 28.4292 47.733 26.8522C48.123 26.4582 48.523 26.0622 49.307 26.0622H53.054C53.844 26.0622 54.238 26.8522 54.238 27.4442C53.256 31.9622 47.968 34.7192 42.858 34.7412H42.798ZM115.773 34.7412C108.081 34.7412 103.151 28.6272 103.151 21.7242C103.151 15.0312 107.671 8.92722 115.531 8.90422H115.581C124.261 8.90422 128.011 15.2142 128.011 21.7242C128.011 23.1042 127.421 23.8942 125.841 23.8942H109.861C110.058 26.6542 112.424 29.2192 115.579 29.2192C117.946 29.2192 119.524 28.4292 120.709 26.8522C120.906 26.4582 121.497 26.0622 122.286 26.0622H126.033C126.823 26.0622 127.223 26.8522 127.223 27.4442C126.241 31.9622 120.953 34.7192 115.843 34.7412H115.783H115.773ZM75.34 0.818224H23.47C22.287 0.818224 21.498 1.80422 21.498 2.98822L21.695 23.3022C21.695 23.3022 10.455 3.18422 9.86 2.00222C9.27 1.21222 8.088 0.226224 6.51 0.226224H2.17C0.987 0.226224 0 1.21222 0 2.39622V32.1762C0 33.3612 0.987 34.3462 2.17 34.3462H4.932C6.114 34.3462 7.102 33.3612 7.102 32.1762L6.902 11.2712C6.902 11.2712 18.147 31.5842 18.738 32.3742C19.33 33.5582 20.514 34.3462 22.091 34.3462H26.041C27.228 34.3462 28.011 33.3612 28.011 32.1762V5.94622H75.341C76.131 5.94622 76.921 5.15622 76.921 4.36922V2.19922C76.921 1.41122 76.131 0.819224 75.341 0.819224L75.34 0.818224ZM109.857 18.9632H121.295C121.099 16.2032 118.555 14.0432 115.61 14.0332H115.575C112.629 14.0332 110.269 16.1832 109.862 18.9232L109.857 18.9532V18.9632ZM37.079 18.9632H48.519C48.119 16.2032 45.579 14.0432 42.629 14.0332H42.599C39.849 14.0332 37.291 16.1832 37.079 18.9232V18.9532V18.9632ZM104.919 3.18322V4.56322C104.919 5.15322 105.309 5.74322 105.901 5.74322H125.623C126.608 5.74322 127.397 4.95322 127.397 3.96522V1.60522C127.397 0.815224 126.607 -0.170776 125.621 0.0252242C125.621 0.0252242 106.491 1.80122 105.901 1.99822C105.311 1.99822 104.913 2.59122 104.913 3.18222L104.919 3.18322Z" fill="white"/>
</svg>
