<svg width="51" height="29" viewBox="0 0 51 29" fill="none" xmlns="http://www.w3.org/2000/svg">
<path fill-rule="evenodd" clip-rule="evenodd" d="M25.011 0C11.204 0 0.0109863 6.49201 0.0109863 14.5C0.0109863 19.5336 4.43355 23.9686 11.1481 26.5685L16.3364 8.45551C16.8353 6.73388 18.6393 3.13772 22.5544 2.98455C23.629 2.9081 25.7796 3.67315 25.7791 5.7773C25.7791 6.58391 25.0743 7.23814 24.2049 7.23814C23.3356 7.23814 22.6308 6.58391 22.6308 5.7773C22.6308 4.97043 23.3356 4.31646 24.2049 4.31646C23.9363 3.97922 23.1303 3.51998 22.5544 3.51998C21.9784 3.51998 20.6352 3.7496 19.7909 6.61881L18.4474 11.2096H23.4756L21.326 18.7845H18.6586L20.5585 12.1279H18.1978L13.8041 27.4648C17.1748 28.4473 20.9816 29 25.0107 29C38.8175 29 50.011 22.508 50.011 14.4997C50.0113 6.49201 38.8177 0 25.011 0ZM14.2053 11.8921C13.3225 15.2206 10.2902 15.1825 9.29228 15.1825H7.33462L6.25998 18.7786H3.38109L6.33669 8.44912H4.878L5.10838 7.68407H11.2112C14.589 7.6838 14.6275 10.094 14.2053 11.8921ZM29.1225 18.7874H22.8657L27.3179 12.1305H24.7467L25.0153 11.2123H31.31L26.8575 17.8692H29.3908L29.1225 18.7874ZM39.1804 15.1907H33.8452C33.4614 16.415 33.2307 17.9835 34.2674 18.0218C35.3036 18.0602 35.8792 17.0272 36.2248 15.9941H38.8348C37.9908 18.7869 35.6107 19.0549 34.114 18.9784C30.9278 18.7869 30.5061 16.7975 31.1966 14.6553C32.0794 11.8245 33.9606 10.8295 36.263 10.8295C39.6029 10.906 39.6029 13.6604 39.1804 15.1907ZM47.0009 13.7936C46.2063 13.7936 45.5037 13.1441 45.5622 12.2259C45.0069 12.3404 44.1607 13.4691 44.0068 14.0429L42.6251 18.7869H39.7082L41.6271 12.1303H40.4755L40.7444 11.212H44.8134L44.4678 12.4363C45.3123 11.3269 46.5019 11.04 47.0011 11.0216C47.7957 11.0216 48.4398 11.5677 48.4398 12.3596C48.4397 12.7399 48.2881 13.1047 48.0182 13.3736C47.7484 13.6425 47.3824 13.7936 47.0009 13.7936ZM34.1156 14.4161C34.3845 13.5743 34.768 11.6614 36.1118 11.6614C37.4555 11.6614 36.7641 13.6891 36.5722 14.4161H34.1156ZM9.29549 8.4398H10.4853C11.4065 8.47816 11.7903 9.31966 11.2914 11.5005C10.7924 13.6811 9.64078 14.4081 8.75803 14.4081H7.56821L9.29549 8.4398Z" fill="white"/>
</svg>
