<svg width="340" height="43" viewBox="0 0 340 43" fill="none" xmlns="http://www.w3.org/2000/svg">
<g clip-path="url(#clip0_5_542)">
<path d="M12.9822 14.2008C14.9655 13.1783 16.0988 12.1559 17.9688 11.3038L22.5022 14.3712C21.9355 12.2695 21.5388 10.4518 21.1422 8.8613L25.7322 5.11229C23.5222 5.11229 21.7655 5.11229 19.7822 5.11229L18.0255 0C17.2322 1.8745 16.6655 3.57861 15.8722 5.28271C13.8888 5.33951 12.0755 5.2259 10.0355 5.28271C11.4522 6.53238 13.0955 7.66843 14.5688 8.8613L12.9822 14.2008Z" fill="white"/>
<path d="M35.7622 20.5059H0.00549316V21.8692H35.7622V20.5059Z" fill="white"/>
<path d="M18.7055 36.07C20.8588 36.07 22.3888 34.9908 22.3888 33.1731V33.1163C22.3888 31.4122 21.0288 30.3329 18.7622 30.3329H14.3422V36.0132H18.7055V36.07ZM12.7555 28.9128H18.8755C20.6322 28.9128 22.0488 29.4241 22.8988 30.3329C23.5788 31.0146 23.9755 31.9802 23.9755 33.1163V33.1731C23.9755 35.502 22.3322 36.8653 20.1222 37.2629L24.4855 43H22.5022L18.3655 37.5469H18.3088H14.2855V43H12.6988V28.9128H12.7555Z" fill="white"/>
<path d="M30.6055 39.9894H32.7588V40.2735H31.8522V42.6592H31.5122V40.2735H30.6055V39.9894Z" fill="white"/>
<path d="M34.5722 41.4663L35.5922 39.9894H35.8755V42.6592H35.5922V40.5007L34.5722 41.9207L33.6088 40.5007V42.6592H33.3255V39.9894H33.6088L34.5722 41.4663Z" fill="white"/>
<path d="M60.5822 23.4597C60.1288 22.7781 59.3355 22.494 58.4855 22.494C57.5222 22.494 56.5022 22.9485 56.5022 24.0845C56.5022 26.5271 62.1688 25.107 62.1688 29.4808C62.1688 32.0938 60.1288 33.4003 57.8055 33.4003C56.3322 33.4003 54.8588 32.9458 53.8955 31.753L55.4822 30.1625C55.9922 30.9577 56.8988 31.4122 57.8622 31.4122C58.8255 31.4122 59.9588 30.8441 59.9588 29.7649C59.9588 27.0951 54.2922 28.6288 54.2922 24.255C54.2922 21.7556 56.5022 20.5627 58.7122 20.5627C59.9588 20.5627 61.2055 20.9036 62.1122 21.8124L60.5822 23.4597Z" fill="white"/>
<path d="M69.9322 20.8467H79.3955V22.8349H75.7122V33.0594H73.6155V22.8349H69.9322V20.8467Z" fill="white"/>
<path d="M92.5988 28.4016L90.7855 23.4597L88.9155 28.4016H92.5988ZM89.8788 20.8467H91.7488L96.9055 33.0594H94.4688L93.3355 30.2761H88.1222L87.0455 33.0594H84.6655L89.8788 20.8467Z" fill="white"/>
<path d="M108.749 26.0158C109.939 26.0158 111.355 25.9022 111.355 24.3117C111.355 22.8917 110.052 22.7212 108.919 22.7212H107.105V26.0158H108.749ZM104.952 20.8467H109.089C111.412 20.8467 113.565 21.5852 113.565 24.3685C113.565 26.1294 112.545 27.4359 110.789 27.6631L113.962 33.0594H111.412L108.635 27.8903H107.105V33.0594H104.952V20.8467Z" fill="white"/>
<path d="M124.445 31.1849H126.429C127.505 31.1849 129.035 31.0145 129.035 29.424C129.035 28.1744 128.242 27.7199 126.485 27.7199H124.445V31.1849ZM124.445 25.7886H126.372C127.789 25.7886 128.469 25.1638 128.469 24.2549C128.469 23.2325 127.789 22.6644 126.145 22.6644H124.389V25.7886H124.445ZM122.349 20.8467H126.995C128.809 20.8467 130.622 21.6988 130.622 23.9141C130.622 25.2774 129.772 26.1862 128.525 26.5839V26.6407C129.999 26.8111 131.132 28.0039 131.132 29.5944C131.132 32.2642 128.865 33.0594 126.599 33.0594H122.292V20.8467H122.349Z" fill="white"/>
<path d="M149.605 28.572C149.605 31.5257 147.509 33.3434 144.789 33.3434C142.069 33.3434 139.972 31.4689 139.972 28.572V20.8467H142.069V28.5152C142.069 29.708 142.692 31.2985 144.732 31.2985C146.772 31.2985 147.395 29.708 147.395 28.5152V20.8467H149.549V28.572H149.605Z" fill="white"/>
<path d="M167.172 23.6869C166.265 22.7212 165.472 22.494 164.679 22.494C162.242 22.494 160.599 24.4253 160.599 26.8679C160.599 29.4808 162.242 31.4121 164.679 31.4121C165.642 31.4121 166.549 30.9577 167.342 29.9353L169.099 31.1849C168.022 32.7186 166.379 33.3434 164.622 33.3434C160.939 33.3434 158.332 30.7873 158.332 26.9815C158.332 23.0621 160.995 20.5059 164.622 20.5059C166.265 20.5059 167.625 21.0171 168.815 22.4372L167.172 23.6869Z" fill="white"/>
<path d="M179.412 26.0158H179.469L184.456 20.8467H187.289L181.736 26.4703L187.686 33.0594H184.682L179.526 27.0383H179.412V33.0594H177.259V20.8467H179.412V26.0158Z" fill="white"/>
<path d="M201.456 23.4597C201.002 22.7781 200.209 22.494 199.359 22.494C198.396 22.494 197.376 22.9485 197.376 24.0845C197.376 26.5271 203.042 25.107 203.042 29.4808C203.042 32.0938 201.002 33.4003 198.679 33.4003C197.206 33.4003 195.732 32.9458 194.769 31.753L196.356 30.1625C196.866 30.9577 197.772 31.4122 198.736 31.4122C199.699 31.4122 200.832 30.8441 200.832 29.7649C200.832 27.0951 195.166 28.6288 195.166 24.255C195.166 21.7556 197.376 20.5627 199.586 20.5627C200.832 20.5627 202.079 20.9036 202.986 21.8124L201.456 23.4597Z" fill="white"/>
<path d="M335.076 20.8467H337.059V21.1308H336.209V23.4029H335.926V21.1308H335.076V20.8467Z" fill="white"/>
<path d="M338.759 22.21L339.722 20.8467H340.006V23.4029H339.722V21.3012L338.816 22.7212H338.759L337.852 21.358V23.4029H337.569V20.8467H337.852L338.759 22.21Z" fill="white"/>
<path d="M225.029 26.0159C226.219 26.0159 227.636 25.9023 227.636 24.3118C227.636 22.8917 226.332 22.7213 225.199 22.7213H223.386V26.0159H225.029ZM221.289 20.8468H225.426C227.749 20.8468 229.902 21.5852 229.902 24.3686C229.902 26.1295 228.882 27.436 227.126 27.6632L230.299 33.0595H227.749L224.972 27.8904H223.386V33.0595H221.232V20.8468H221.289Z" fill="white"/>
<path d="M246.562 22.8349H240.782V25.7886H246.279V27.7767H240.782V31.0713H246.902V33.0594H238.629V20.8467H246.562V22.8349Z" fill="white"/>
<path d="M261.579 23.4597C261.126 22.7781 260.332 22.494 259.482 22.494C258.519 22.494 257.556 22.9485 257.556 24.0845C257.556 26.5271 263.222 25.107 263.222 29.4808C263.222 32.0938 261.182 33.4003 258.859 33.4003C257.386 33.4003 255.912 32.9458 254.949 31.753L256.536 30.1625C257.046 30.9577 257.952 31.4122 258.916 31.4122C259.879 31.4122 261.012 30.8441 261.012 29.7649C261.012 27.0951 255.346 28.6288 255.346 24.255C255.346 21.7556 257.556 20.5627 259.766 20.5627C261.012 20.5627 262.259 20.9036 263.166 21.8124L261.579 23.4597Z" fill="white"/>
<path d="M280.052 22.8349H274.272V25.7886H279.769V27.7767H274.272V31.0713H280.392V33.0594H272.176V20.8467H280.052V22.8349Z" fill="white"/>
<path d="M292.972 26.0159C294.162 26.0159 295.579 25.9023 295.579 24.3118C295.579 22.8917 294.275 22.7213 293.142 22.7213H291.329V26.0159H292.972ZM289.232 20.8468H293.369C295.692 20.8468 297.846 21.5852 297.846 24.3686C297.846 26.1295 296.826 27.436 295.069 27.6632L298.242 33.0595H295.692L292.916 27.8904H291.386V33.0595H289.232V20.8468Z" fill="white"/>
<path d="M310.935 30.0489L314.279 20.8467H316.545L311.729 33.0594H309.915L305.212 20.8467H307.649L310.935 30.0489Z" fill="white"/>
<path d="M332.525 22.8349H326.746V25.7886H332.186V27.7767H326.746V31.0713H332.809V33.0594H324.592V20.8467H332.525V22.8349Z" fill="white"/>
</g>
<defs>
<clipPath id="clip0_5_542">
<rect width="340" height="43" fill="white" transform="translate(0.00549316)"/>
</clipPath>
</defs>
</svg>
