<svg width="277" height="43" viewBox="0 0 277 43" fill="none" xmlns="http://www.w3.org/2000/svg">
<g clip-path="url(#clip0_1_765)">
<path d="M12.9877 14.2008C14.971 13.1783 16.1043 12.1559 17.9743 11.3038L22.5077 14.3712C21.941 12.2695 21.5443 10.4518 21.1477 8.8613L25.7377 5.11229C23.5277 5.11229 21.771 5.11229 19.7877 5.11229L18.031 0C17.2377 1.8745 16.671 3.57861 15.8777 5.28271C13.8943 5.33951 12.081 5.2259 10.041 5.28271C11.4577 6.53238 13.101 7.66843 14.5743 8.8613L12.9877 14.2008Z" fill="white"/>
<path d="M35.7677 20.5059H0.0109863V21.8692H35.7677V20.5059Z" fill="white"/>
<path d="M18.711 36.07C20.8643 36.07 22.3943 34.9908 22.3943 33.1731V33.1163C22.3943 31.4122 21.0343 30.3329 18.7677 30.3329H14.3477V36.0132H18.711V36.07ZM12.761 28.9128H18.881C20.6377 28.9128 22.0543 29.4241 22.9043 30.3329C23.5843 31.0146 23.981 31.9802 23.981 33.1163V33.1731C23.981 35.502 22.3377 36.8653 20.1277 37.2629L24.491 43H22.5077L18.371 37.5469H18.3143H14.291V43H12.7043V28.9128H12.761Z" fill="white"/>
<path d="M30.611 39.9894H32.7643V40.2735H31.8576V42.6592H31.5176V40.2735H30.611V39.9894Z" fill="white"/>
<path d="M34.5777 41.4663L35.5977 39.9894H35.881V42.6592H35.5977V40.5007L34.5777 41.9207L33.6143 40.5007V42.6592H33.331V39.9894H33.6143L34.5777 41.4663Z" fill="white"/>
<path d="M60.5877 23.4597C60.1343 22.7781 59.341 22.494 58.491 22.494C57.5277 22.494 56.5077 22.9485 56.5077 24.0845C56.5077 26.5271 62.1743 25.107 62.1743 29.4808C62.1743 32.0938 60.1343 33.4003 57.811 33.4003C56.3377 33.4003 54.8643 32.9458 53.901 31.753L55.4877 30.1625C55.9977 30.9577 56.9043 31.4122 57.8677 31.4122C58.831 31.4122 59.9643 30.8441 59.9643 29.7649C59.9643 27.0951 54.2977 28.6288 54.2977 24.255C54.2977 21.7556 56.5077 20.5627 58.7177 20.5627C59.9643 20.5627 61.211 20.9036 62.1177 21.8124L60.5877 23.4597Z" fill="white"/>
<path d="M69.9376 20.8467H79.401V22.8349H75.7176V33.0594H73.621V22.8349H69.9376V20.8467Z" fill="white"/>
<path d="M92.6044 28.4016L90.791 23.4597L88.921 28.4016H92.6044ZM89.8844 20.8467H91.7544L96.911 33.0594H94.4744L93.341 30.2761H88.1277L87.051 33.0594H84.671L89.8844 20.8467Z" fill="white"/>
<path d="M108.754 26.0158C109.944 26.0158 111.361 25.9022 111.361 24.3117C111.361 22.8917 110.058 22.7212 108.924 22.7212H107.111V26.0158H108.754ZM104.958 20.8467H109.094C111.418 20.8467 113.571 21.5852 113.571 24.3685C113.571 26.1294 112.551 27.4359 110.794 27.6631L113.968 33.0594H111.418L108.641 27.8903H107.111V33.0594H104.958V20.8467Z" fill="white"/>
<path d="M124.451 31.1849H126.434C127.511 31.1849 129.041 31.0145 129.041 29.424C129.041 28.1744 128.248 27.7199 126.491 27.7199H124.451V31.1849ZM124.451 25.7886H126.378C127.794 25.7886 128.474 25.1638 128.474 24.2549C128.474 23.2325 127.794 22.6644 126.151 22.6644H124.394V25.7886H124.451ZM122.354 20.8467H127.001C128.814 20.8467 130.628 21.6988 130.628 23.9141C130.628 25.2774 129.778 26.1862 128.531 26.5839V26.6407C130.004 26.8111 131.138 28.0039 131.138 29.5944C131.138 32.2642 128.871 33.0594 126.604 33.0594H122.298V20.8467H122.354Z" fill="white"/>
<path d="M149.611 28.572C149.611 31.5257 147.514 33.3434 144.794 33.3434C142.074 33.3434 139.978 31.4689 139.978 28.572V20.8467H142.074V28.5152C142.074 29.708 142.698 31.2985 144.738 31.2985C146.778 31.2985 147.401 29.708 147.401 28.5152V20.8467H149.554V28.572H149.611Z" fill="white"/>
<path d="M167.178 23.6869C166.271 22.7212 165.478 22.494 164.684 22.494C162.248 22.494 160.604 24.4253 160.604 26.8679C160.604 29.4808 162.248 31.4121 164.684 31.4121C165.648 31.4121 166.554 30.9577 167.348 29.9353L169.104 31.1849C168.028 32.7186 166.384 33.3434 164.628 33.3434C160.944 33.3434 158.338 30.7873 158.338 26.9815C158.338 23.0621 161.001 20.5059 164.628 20.5059C166.271 20.5059 167.631 21.0171 168.821 22.4372L167.178 23.6869Z" fill="white"/>
<path d="M179.418 26.0158H179.474L184.461 20.8467H187.294L181.741 26.4703L187.691 33.0594H184.688L179.531 27.0383H179.418V33.0594H177.264V20.8467H179.418V26.0158Z" fill="white"/>
<path d="M201.461 23.4597C201.008 22.7781 200.214 22.494 199.364 22.494C198.401 22.494 197.381 22.9485 197.381 24.0845C197.381 26.5271 203.048 25.107 203.048 29.4808C203.048 32.0938 201.008 33.4003 198.684 33.4003C197.211 33.4003 195.738 32.9458 194.774 31.753L196.361 30.1625C196.871 30.9577 197.778 31.4122 198.741 31.4122C199.704 31.4122 200.838 30.8441 200.838 29.7649C200.838 27.0951 195.171 28.6288 195.171 24.255C195.171 21.7556 197.381 20.5627 199.591 20.5627C200.838 20.5627 202.084 20.9036 202.991 21.8124L201.461 23.4597Z" fill="white"/>
<path d="M225.034 26.0159C226.224 26.0159 227.641 25.9023 227.641 24.3118C227.641 22.8917 226.338 22.7213 225.204 22.7213H223.391V26.0159H225.034ZM221.294 20.8468H225.431C227.754 20.8468 229.908 21.5852 229.908 24.3686C229.908 26.1295 228.888 27.436 227.131 27.6632L230.304 33.0595H227.754L224.978 27.8904H223.391V33.0595H221.238V20.8468H221.294Z" fill="white"/>
<path d="M246.568 22.8349H240.788V25.7886H246.284V27.7767H240.788V31.0713H246.908V33.0594H238.634V20.8467H246.568V22.8349Z" fill="white"/>
<path d="M261.584 23.4597C261.131 22.7781 260.338 22.494 259.488 22.494C258.524 22.494 257.561 22.9485 257.561 24.0845C257.561 26.5271 263.228 25.107 263.228 29.4808C263.228 32.0938 261.188 33.4003 258.864 33.4003C257.391 33.4003 255.918 32.9458 254.954 31.753L256.541 30.1625C257.051 30.9577 257.958 31.4122 258.921 31.4122C259.884 31.4122 261.018 30.8441 261.018 29.7649C261.018 27.0951 255.351 28.6288 255.351 24.255C255.351 21.7556 257.561 20.5627 259.771 20.5627C261.018 20.5627 262.264 20.9036 263.171 21.8124L261.584 23.4597Z" fill="white"/>
<path d="M280.058 22.8349H274.278V25.7886H279.774V27.7767H274.278V31.0713H280.398V33.0594H272.181V20.8467H280.058V22.8349Z" fill="white"/>
</g>
<defs>
<clipPath id="clip0_1_765">
<rect width="340" height="43" fill="white" transform="translate(0.0109863)"/>
</clipPath>
</defs>
</svg>
