<svg width="59" height="60" viewBox="0 0 59 60" fill="none" xmlns="http://www.w3.org/2000/svg">
<path d="M0.166666 38.0001C0.166666 33.1556 2.18889 29.2783 6.23333 26.3681C10.2778 23.4579 14.9222 22.0019 20.1667 22.0001C25.4111 21.9983 30.0556 23.4543 34.1 26.3681C38.1444 29.2819 40.1667 33.1592 40.1667 38.0001H0.166666ZM0.166666 48.6667V43.3334H40.1667V48.6667H0.166666ZM2.83333 59.3334C2.07778 59.3334 1.44489 59.0774 0.934666 58.5654C0.424444 58.0534 0.168444 57.4205 0.166666 56.6667V54.0001H40.1667V56.6667C40.1667 57.4223 39.9107 58.0561 39.3987 58.5681C38.8867 59.0801 38.2538 59.3352 37.5 59.3334H2.83333ZM45.5 59.3334V38.0001C45.5 32.9334 43.7667 28.5556 40.3 24.8667C36.8333 21.1779 32.5889 18.7112 27.5667 17.4667L26.8333 11.3334H40.1667V0.666748H45.5V11.3334H58.8333L54.5 54.5334C54.3667 55.9112 53.7996 57.0561 52.7987 57.9681C51.7978 58.8801 50.6093 59.3352 49.2333 59.3334H45.5Z" fill="#F15725"/>
</svg>
