<svg width="43" height="48" viewBox="0 0 43 48" fill="none" xmlns="http://www.w3.org/2000/svg">
<path d="M16.1667 40H18.8333V29.3333C19.9444 29.3333 20.8893 28.9449 21.668 28.168C22.4467 27.3911 22.8351 26.4462 22.8333 25.3333V17.3333H20.1667V25.3333H18.8333V17.3333H16.1667V25.3333H14.8333V17.3333H12.1667V25.3333C12.1667 26.4444 12.556 27.3893 13.3347 28.168C14.1133 28.9467 15.0573 29.3351 16.1667 29.3333V40ZM26.8333 40H29.5V17.3333C28.0333 17.3333 26.7782 17.856 25.7347 18.9013C24.6911 19.9467 24.1684 21.2018 24.1667 22.6667V30.6667H26.8333V40ZM0.166666 48V16L21.5 0L42.8333 16V48H0.166666Z" fill="#F15725"/>
</svg>
