<svg width="52" height="48" viewBox="0 0 52 48" fill="none" xmlns="http://www.w3.org/2000/svg">
<path d="M47.8093 9.28L47.8466 9.23467L37.18 0.594667L33.82 4.73867L39.332 9.20267C37.9646 10.0336 36.8789 11.2567 36.2159 12.7129C35.553 14.1691 35.3435 15.7911 35.6146 17.368C36.0146 19.7653 37.6653 21.8373 39.8013 22.9973C42.188 24.296 44.2813 24.176 46.1426 23.5147L46.1026 40C46.1059 40.4416 45.9989 40.877 45.7915 41.2668C45.5842 41.6566 45.2828 41.9886 44.9149 42.2327C44.5469 42.4768 44.1238 42.6253 43.684 42.6647C43.2442 42.7042 42.8015 42.6334 42.396 42.4587C42.0783 42.3228 41.7903 42.1263 41.548 41.88C41.3015 41.633 41.1061 41.3398 40.9729 41.0172C40.8398 40.6946 40.7715 40.349 40.772 40L40.8333 34.6667C40.836 33.617 40.6307 32.5772 40.2293 31.6074C39.8279 30.6375 39.2383 29.7567 38.4946 29.016C37.7518 28.2715 36.8693 27.6808 35.8979 27.2776C34.9265 26.8745 33.8851 26.6669 32.8333 26.6667H30.1666V5.33333C30.1666 3.91885 29.6047 2.56229 28.6045 1.5621C27.6044 0.561903 26.2478 0 24.8333 0H6.16665C4.75216 0 3.3956 0.561903 2.39541 1.5621C1.39522 2.56229 0.833313 3.91885 0.833313 5.33333V42.6667C0.833313 44.0812 1.39522 45.4377 2.39541 46.4379C3.3956 47.4381 4.75216 48 6.16665 48H24.8333C26.2478 48 27.6044 47.4381 28.6045 46.4379C29.6047 45.4377 30.1666 44.0812 30.1666 42.6667V32H32.8333C33.196 32 33.5453 32.072 33.876 32.208C34.5106 32.4858 35.0165 32.9937 35.292 33.6293C35.4303 33.9576 35.5011 34.3104 35.5 34.6667L35.436 40C35.436 41.0827 35.6466 42.1307 36.0653 43.1147C36.468 44.072 37.0466 44.928 37.7746 45.6507C38.5149 46.3988 39.3968 46.9918 40.3688 47.3952C41.3409 47.7986 42.3836 48.0042 43.436 48C44.5186 48 45.564 47.792 46.5506 47.3707C47.5053 46.9707 48.364 46.392 49.0866 45.6613C49.8332 44.9199 50.4252 44.0378 50.8285 43.066C51.2318 42.0943 51.4382 41.0521 51.436 40L51.5 16C51.4973 14.6603 51.158 13.3428 50.5131 12.1686C49.8682 10.9943 48.9384 10.001 47.8093 9.28ZM24.8333 13.3333H6.16665V5.33333H24.8333V13.3333ZM43.5 18.6667C42.7927 18.6667 42.1145 18.3857 41.6144 17.8856C41.1143 17.3855 40.8333 16.7072 40.8333 16C40.8333 15.2928 41.1143 14.6145 41.6144 14.1144C42.1145 13.6143 42.7927 13.3333 43.5 13.3333C44.2072 13.3333 44.8855 13.6143 45.3856 14.1144C45.8857 14.6145 46.1666 15.2928 46.1666 16C46.1666 16.7072 45.8857 17.3855 45.3856 17.8856C44.8855 18.3857 44.2072 18.6667 43.5 18.6667Z" fill="#F15725"/>
</svg>
