<svg width="37" height="60" viewBox="0 0 37 60" fill="none" xmlns="http://www.w3.org/2000/svg">
<path d="M9.83328 59.3334C8.49995 59.3334 7.33373 58.8996 6.33461 58.0321C5.3355 57.1645 4.74617 56.065 4.56661 54.7334L0.233281 22.3334C0.144392 21.5334 0.366614 20.8339 0.899948 20.2347C1.43328 19.6356 2.09995 19.3352 2.89995 19.3334H34.0999C34.8999 19.3334 35.5666 19.6339 36.0999 20.2347C36.6333 20.8356 36.8555 21.5352 36.7666 22.3334L32.4333 54.7334C32.2555 56.0667 31.6662 57.1672 30.6653 58.0348C29.6644 58.9023 28.4982 59.3352 27.1666 59.3334H9.83328ZM18.4999 40.6667C20.7222 40.6667 22.6111 39.889 24.1666 38.3334C25.7222 36.7779 26.4999 34.889 26.4999 32.6667V30.0001C26.4999 29.2445 26.2439 28.6116 25.7319 28.1014C25.2199 27.5912 24.5871 27.3352 23.8333 27.3334C23.0795 27.3316 22.4466 27.5876 21.9346 28.1014C21.4226 28.6152 21.1666 29.2481 21.1666 30.0001V32.6667C21.1666 33.4223 20.9106 34.0561 20.3986 34.5681C19.8866 35.0801 19.2537 35.3352 18.4999 35.3334C17.7462 35.3316 17.1133 35.0756 16.6013 34.5654C16.0893 34.0552 15.8333 33.4223 15.8333 32.6667V30.0001C15.8333 29.2445 15.5773 28.6116 15.0653 28.1014C14.5533 27.5912 13.9204 27.3352 13.1666 27.3334C12.4128 27.3316 11.7799 27.5876 11.2679 28.1014C10.7559 28.6152 10.4999 29.2481 10.4999 30.0001V32.6667C10.4999 34.889 11.2777 36.7779 12.8333 38.3334C14.3888 39.889 16.2777 40.6667 18.4999 40.6667ZM26.4999 16.6667C25.3888 16.6667 24.4448 16.2783 23.6679 15.5014C22.8911 14.7245 22.5017 13.7796 22.4999 12.6667C22.4982 11.5539 22.8875 10.6099 23.6679 9.83475C24.4484 9.05964 25.3924 8.6703 26.4999 8.66675C27.6075 8.66319 28.5524 9.05253 29.3346 9.83475C30.1168 10.617 30.5053 11.561 30.4999 12.6667C30.4946 13.7725 30.1062 14.7174 29.3346 15.5014C28.5631 16.2854 27.6182 16.6739 26.4999 16.6667ZM13.1666 14.0001C11.2999 14.0001 9.72217 13.3556 8.43328 12.0667C7.14439 10.7779 6.49995 9.20008 6.49995 7.33341C6.49995 5.46675 7.14439 3.88897 8.43328 2.60008C9.72217 1.31119 11.2999 0.666748 13.1666 0.666748C15.0333 0.666748 16.6111 1.31119 17.8999 2.60008C19.1888 3.88897 19.8333 5.46675 19.8333 7.33341C19.8333 9.20008 19.1888 10.7779 17.8999 12.0667C16.6111 13.3556 15.0333 14.0001 13.1666 14.0001Z" fill="#F15725"/>
</svg>
